<svg width="16" height="16" viewBox="0 0 16 16" fill="#424242" xmlns="http://www.w3.org/2000/svg">
  <path d="M8 1.5C4.41 1.5 1.5 4.41 1.5 8C1.5 11.59 4.41 14.5 8 14.5C11.59 14.5 14.5 11.59 14.5 8C14.5 4.41 11.59 1.5 8 1.5ZM8 13C5.24 13 3 10.76 3 8C3 5.24 5.24 3 8 3C10.76 3 13 5.24 13 8C13 10.76 10.76 13 8 13Z"/>
  <circle cx="6" cy="6.5" r="1" fill="#424242"/>
  <circle cx="10" cy="6.5" r="1" fill="#424242"/>
  <path d="M8 11C9.5 11 10.5 10 10.5 9.5H5.5C5.5 10 6.5 11 8 11Z" fill="#424242"/>
  <path d="M4 2L5 0.5L6 2" stroke="#424242" stroke-width="0.5"/>
  <path d="M10 2L11 0.5L12 2" stroke="#424242" stroke-width="0.5"/>
</svg>
